<?xml version="1.0" encoding="UTF-8" standalone="no"?>
<svg xmlns:dc="http://purl.org/dc/elements/1.1/" xmlns:cc="http://creativecommons.org/ns#"
  xmlns:rdf="http://www.w3.org/1999/02/22-rdf-syntax-ns#" xmlns:svg="http://www.w3.org/2000/svg"
  xmlns="http://www.w3.org/2000/svg" viewBox="0 0 2730.6667 466.66666" height="466.66666" width="2730.6667"
  xml:space="preserve" id="svg2" version="1.1">
  <metadata id="metadata8">
    <rdf:RDF>
      <cc:Work rdf:about="">
        <dc:format>image/svg+xml</dc:format>
        <dc:type rdf:resource="http://purl.org/dc/dcmitype/StillImage" />
      </cc:Work>
    </rdf:RDF>
  </metadata>
  <defs id="defs6">
    <clipPath id="clipPath20" clipPathUnits="userSpaceOnUse">
      <path id="path18" d="M 0,350 H 2048 V 0 H 0 Z" />
    </clipPath>
  </defs>
  <g transform="matrix(1.3333333,0,0,-1.3333333,0,466.66667)" id="g10">
    <g id="g14">
      <g clip-path="url(#clipPath20)" id="g16">
        <g transform="translate(87.6235,66.3594)" id="g22">
          <path id="path24" style="fill:#ffffff;fill-opacity:1;fill-rule:nonzero;stroke:none"
            d="m 0,0 h 16.497 c 36.293,0 59.458,19.135 67.356,64.009 8.71,49.49 -5.134,62.688 -46.707,62.688 H 22.299 Z m -87.624,-55.432 41.812,237.559 H 58.451 c 76.546,0 117.787,-35.633 104.023,-113.83 C 146.737,-21.117 90.875,-55.432 14.659,-55.432 Z" />
        </g>
        <g transform="translate(252.7202,10.9277)" id="g26">
          <path id="path28" style="fill:#ffffff;fill-opacity:1;fill-rule:nonzero;stroke:none"
            d="m 0,0 41.813,237.559 h 77.866 L 77.867,0 Z" />
        </g>
        <g transform="translate(353.8511,330.564)" id="g30">
          <path id="path32" style="fill:#ffffff;fill-opacity:1;fill-rule:nonzero;stroke:none"
            d="M 0,0 H 1419.665 V -20.37 L 136.839,-62.359 90.516,-319.636 H 12.649 l 46.323,257.277 h -69.949 z" />
        </g>
        <g transform="translate(481.9126,10.9277)" id="g34">
          <path id="path36" style="fill:#ffffff;fill-opacity:1;fill-rule:nonzero;stroke:none"
            d="m 0,0 41.813,237.559 h 193.676 l -9.757,-55.431 H 109.923 l -5.982,-33.983 h 97.994 L 192.178,92.714 H 94.185 L 87.622,55.432 H 208.051 L 198.296,0 Z" />
        </g>
        <g transform="translate(888.9204,157.7539)" id="g38">
          <path id="path40" style="fill:#ffffff;fill-opacity:1;fill-rule:nonzero;stroke:none"
            d="m 0,0 c 2.046,24.745 -10.963,38.932 -35.379,38.932 -27.386,0 -48.006,-23.425 -56.078,-69.29 -5.865,-33.324 -4.124,-64.665 35.47,-64.665 25.076,0 40.032,17.485 47.008,40.252 h 74.896 c -17.729,-61.37 -68.116,-98.324 -130.804,-98.324 -78.527,0 -117.561,48.171 -103.971,125.379 13.53,76.875 74.081,124.718 140.4,124.718 C 44.131,97.002 78.383,61.039 73.909,0 Z" />
        </g>
        <g transform="translate(1000.5811,248.4868)" id="g42">
          <path id="path44" style="fill:#ffffff;fill-opacity:1;fill-rule:nonzero;stroke:none"
            d="m 0,0 h 217.761 l -10.976,-62.358 h -69.95 L 106.002,-237.559 H 28.136 l 30.835,175.201 h -69.947 z" />
        </g>
        <g transform="translate(1319.96,145.876)" id="g46">
          <path id="path48" style="fill:#ffffff;fill-opacity:1;fill-rule:nonzero;stroke:none"
            d="M 0,0 H 30.687 C 54.772,0 68.685,5.938 71.589,22.435 74.549,39.262 62.745,47.18 44.6,47.18 H 8.307 Z m -9.173,-52.131 -14.577,-82.817 h -77.866 l 41.811,237.559 H 52.377 c 79.186,0 101.476,-21.446 93.347,-67.639 -4.821,-27.386 -21.096,-50.48 -50.144,-58.07 23.448,-9.239 37.583,-15.177 29.161,-63.016 -5.459,-31.016 -8.307,-41.575 0.932,-41.575 l -1.278,-7.259 H 45.539 c -1.051,5.279 -0.358,20.457 3.357,41.572 5.458,31.015 1.982,41.245 -34.314,41.245 z" />
        </g>
        <g transform="translate(1468.5342,10.9277)" id="g50">
          <path id="path52" style="fill:#ffffff;fill-opacity:1;fill-rule:nonzero;stroke:none"
            d="m 0,0 41.813,237.559 h 193.675 l -9.754,-55.431 H 109.922 l -5.98,-33.983 h 97.993 L 192.181,92.714 H 94.187 L 87.623,55.432 H 208.054 L 198.297,0 Z" />
        </g>
        <g transform="translate(1695.001,330.5645)" id="g54">
          <path id="path56" style="fill:#ffffff;fill-opacity:1;fill-rule:nonzero;stroke:none"
            d="m 0,0 h 79.776 l 106.778,-242.385 77.684,161.874 h 88.759 L 228.698,-321.203 h -90.311 z" />
        </g>
      </g>
    </g>
  </g>
</svg>